# AST/ASF file generated using VICON BodyLanguage
# -----------------------------------------------
:version 1.10
:name VICON
:units
  mass 1.0
  length 0.45
  angle deg
:documentation
   .ast/.asf automatically generated from VICON data using
   VICON BodyBuilder and BodyLanguage model FoxedUp or BRILLIANT.MOD
:root
   order TX TY TZ RX RY RZ
   axis XYZ
   position 0 0 0  
   orientation 0 0 0 
:bonedata
  begin
     id 1 
     name lhipjoint
     direction 0.671379 -0.66392 0.329334 
     length 2.38647 
     axis 0 0 0  XYZ
  end
  begin
     id 2 
     name lfemur
     direction 0.34202 -0.939693 0  
     length 6.48179  
     axis 0 0 20  XYZ
    dof rx ry rz
    limits (-160.0 20.0)
           (-70.0 70.0)
           (-60.0 70.0)
  end
  begin
     id 3 
     name ltibia
     direction 0.34202 -0.939693 0   
     length 6.86524   
     axis 0 0 20   XYZ
    dof rx
    limits (-10.0 170.0)
  end
  begin
     id 4 
     name lfoot
     direction 0.204886 -0.562919 0.800715   
     length 1.73031   
     axis -90 7.62852e-016 20   XYZ
    dof rx rz
    limits (-45.0 90.0)
           (-70.0 20.0)
  end
  begin
     id 5 
     name ltoes
     direction 1.53548e-011 -4.21841e-011 1   
     length 0.828161   
     axis -90 7.62852e-016 20   XYZ
    dof rx
    limits (-90.0 20.0)
  end
  begin
     id 6 
     name rhipjoint
     direction -0.662732 -0.670855 0.332775   
     length 2.3618  
     axis 0 0 0  XYZ 
  end
  begin
     id 7 
     name rfemur
     direction -0.34202 -0.939693 0   
     length 6.3025   
     axis 0 0 -20   XYZ
    dof rx ry rz
    limits (-160.0 20.0)
           (-70.0 70.0)
           (-70.0 60.0)
  end
  begin
     id 8 
     name rtibia
     direction -0.34202 -0.939693 0   
     length 6.8732   
     axis 0 0 -20   XYZ
    dof rx
    limits (-10.0 170.0)
 end
 begin
     id 9 
     name rfoot
     direction -0.173856 -0.477665 0.861168   
     length 1.54784  
     axis -90 -7.62852e-016 -20   XYZ
    dof rx rz
    limits (-45.0 90.0)
           (-20.0 70.0)
  end
  begin
     id 10 
     name rtoes
     direction -1.53562e-011 -4.21802e-011 1   
     length 0.759618   
     axis -90 -7.62852e-016 -20   XYZ
    dof rx
    limits (-90.0 20.0)
  end
  begin
     id 11 
     name lowerback
     direction -0.0278357 0.999497 -0.0151789   
     length 1.97203   
     axis 0 0 0   XYZ
    dof rx ry rz
    limits (-20.0 45.0)
           (-30.0 30.0)
           (-30.0 30.0)
  end
  begin
     id 12 
     name upperback
     direction -0.00360622 0.997542 0.0699804   
     length 1.94709   
     axis 0 0 0   XYZ
    dof rx ry rz
    limits (-20.0 45.0)
           (-30.0 30.0)
           (-30.0 30.0)
  end
  begin
     id 13 
     name thorax
     direction 0.00907706 0.997048 0.0762461   
     length 1.95722   
     axis 0 0 0   XYZ
    dof rx ry rz
    limits (-20.0 45.0)
           (-30.0 30.0)
           (-30.0 30.0)
  end
  begin
     id 14 
     name lowerneck
     direction -0.0481835 0.99872 -0.0153927   
     length 1.63078   
     axis 0 0 0   XYZ
    dof rx ry rz
    limits (-20.0 45.0)
           (-30.0 30.0)
           (-30.0 30.0)
  end
  begin
     id 15 
     name upperneck
     direction 0.0859716 0.979226 -0.183644   
     length 1.62591   
     axis 0 0 0   XYZ
    dof rx ry rz
    limits (-20.0 45.0)
           (-30.0 30.0)
           (-30.0 30.0)
  end
  begin
     id 16
     name head
     direction 0.0324821 0.997629 -0.0606773  
     length 1.64811  
     axis 0 0 0   XYZ
    dof rx ry rz
    limits (-20.0 45.0)
           (-30.0 30.0)
           (-30.0 30.0)
  end
  begin
     id 17 
     name lclavicle
     direction 0.939609 0.311019 0.142835  
     length 3.70647  
     axis 0 0 0   XYZ
    dof ry rz
    limits (-20.0 10.0)
           (0.0 20.0)
  end
  begin
     id 18 
     name lhumerus
     direction 1 -4.48963e-011 -1.59838e-027   
     length 4.59207   
     axis 180 -30 -90   XYZ
    dof rx ry rz
    limits (-60.0 90.0)
           (-90.0 90.0)
           (-90.0 90.0)
  end
  begin
     id 19
     name lradius
     direction 1 -4.48957e-011 -1.3483e-026   
     length 2.98109   
     axis 180 -30 -90   XYZ
    dof rx
    limits (-10.0 170.0)
  end
  begin
     id 20
     name lwrist
     direction 1 -4.48954e-011 -3.11579e-026   
     length 1.49055   
     axis 2.00652e-014 90 90   XYZ
    dof ry
    limits (-180.0 0.0)
 end
  begin
     id 21 
     name lhand
     direction 1 -4.4911e-011 -6.23158e-026   
     length 0.480203   
     axis 3.97628e-014 90 90   XYZ
    dof rx rz
    limits (-90.0 90.0)
           (-45.0 45.0)
  end
  begin
     id 22 
     name lfingers
     direction 1 -4.48893e-011 -1.24632e-025   
     length 0.387152   
     axis 7.95256e-014 90 90   XYZ
    dof rx
    limits (0.0 90.0)
  end
  begin
     id 23
     name lthumb
     direction 0.707107 -6.35013e-011 0.707107   
     length 0.555875   
     axis -90 45 2.85299e-015   XYZ
    dof rx rz
    limits (-45.0 45.0)
           (-45.0 45.0)
  end
  begin
     id 24 
     name rclavicle
     direction -0.950396 0.30392 0.0661859   
     length 3.70894  
     axis 0 0 0   XYZ 
    dof ry rz
    limits (-10.0 20.0)
           (-20.0 0.0)
  end
  begin
     id 25 
     name rhumerus
     direction -1 -4.48957e-011 -2.96677e-027  
     length 4.76508   
     axis 180 30 90   XYZ
    dof rx ry rz
    limits (-90.0 60.0)
           (-90.0 90.0)
           (-90.0 90.0)
  end
  begin
     id 26 
     name rradius
     direction -1 -4.48974e-011 -1.44501e-026   
     length 2.78902   
     axis 180 30 90   XYZ
    dof rx
    limits (-10.0 170.0)
  end
  begin
     id 27 
     name rwrist
     direction -1 -4.48978e-011 -3.11579e-026   
     length 1.39451   
     axis 2.00652e-014 -90 -90   XYZ
    dof ry
    limits (-180.0 0.0)
  end
  begin
     id 28
     name rhand
     direction -1 -4.48956e-011 -6.23158e-026   
     length 0.721303   
     axis 3.97628e-014 -90 -90   XYZ
    dof rx rz
    limits (-90.0 90.0)
           (-45.0 45.0)
  end
  begin
     id 29
     name rfingers
     direction -1 -4.4899e-011 -1.24632e-025   
     length 0.581533   
     axis 7.95256e-014 -90 -90   XYZ
    dof rx
    limits (0.0 90.0)
  end
  begin
     id 30
     name rthumb
     direction -0.707107 -6.34911e-011 0.707107   
     length 0.834968   
     axis -90 -45 -2.85299e-015   XYZ
    dof rx rz
    limits (-45.0 45.0)
           (-45.0 45.0)
  end
:hierarchy
  begin
    root lhipjoint rhipjoint lowerback
    lhipjoint lfemur
    lfemur ltibia
    ltibia lfoot
    lfoot ltoes
    rhipjoint rfemur
    rfemur rtibia
    rtibia rfoot
    rfoot rtoes
    lowerback upperback
    upperback thorax
    thorax lowerneck lclavicle rclavicle
    lowerneck upperneck
    upperneck head
    lclavicle lhumerus
    lhumerus lradius
    lradius lwrist
    lwrist lhand lthumb
    lhand lfingers
    rclavicle rhumerus
    rhumerus rradius
    rradius rwrist
    rwrist rhand rthumb
    rhand rfingers
  end

#!OML:ASF I:\salsa\salsa 7_09\Patient 1\Session 1\dancerfemale.ASF
:FULLY-SPECIFIED
:DEGREES
426
root 6.67053 15.5076 0.143129 -262.012 -81.1495 269.807
lowerback -0.8361 11.5572 5.6361
upperback -6.00303 15.5388 2.66995
thorax -5.1208 7.46502 -0.690732
lowerneck 6.49344 -13.7117 -14.8803
upperneck 20.79 -20.811 5.94641
head 7.60728 -11.0295 2.92593
rclavicle -1.48169e-013 -4.81059e-014
rhumerus -30.4288 9.89881 -76.4868
rradius 55.1309
rwrist 23.3896
rhand -1.99808 52.0695
rfingers 7.12502
rthumb 23.6752 23.5074
lclavicle -1.48169e-013 -4.81059e-014
lhumerus -63.0235 36.4165 4.35686
lradius 132.229
lwrist 78.9456
lhand 32.391 61.8381
lfingers 7.12502
lthumb 55.8427 79.3491
rfemur 5.36804 -8.0994 29.9254
rtibia 23.8411
rfoot -16.4399 3.17134
rtoes -39.5221
lfemur -44.7006 13.4524 -25.9355
ltibia 48.8739
lfoot -32.5321 17.9678
ltoes 17.2714
427
root 6.26669 15.542 0.226381 -279.03 -81.504 287.026
lowerback -1.60104 11.747 5.43144
upperback -6.33037 15.7235 2.43688
thorax -5.02632 7.56298 -0.69377
lowerneck 6.58418 -13.8565 -15.0225
upperneck 21.3734 -20.9547 5.36815
head 7.76392 -11.1487 2.73527
rclavicle -1.26825e-013 -2.66371e-014
rhumerus -30.2456 9.8616 -75.8376
rradius 55.8295
rwrist 23.7423
rhand -1.35721 52.5365
rfingers 7.12502
rthumb 24.2898 24.0553
lclavicle -1.26825e-013 -2.66371e-014
lhumerus -64.3642 36.1536 2.57644
lradius 131.146
lwrist 79.2763
lhand 34.8453 63.0446
lfingers 7.12502
lthumb 58.0023 78.7639
rfemur 3.82274 -9.14924 28.7019
rtibia 28.3296
rfoot -13.0851 4.40323
rtoes -40.4713
lfemur -42.8907 11.6929 -26.6805
ltibia 48.3819
lfoot -31.5595 15.4824
ltoes 21.441
428
root 5.87948 15.5609 0.318937 -298.401 -81.0059 306.604
lowerback -2.41046 11.8787 5.23149
upperback -6.50829 15.8228 2.14639
thorax -4.73342 7.62751 -0.722807
lowerneck 6.41415 -13.9944 -15.1677
upperneck 22.0075 -21.0238 4.71691
head 7.96575 -11.2276 2.50525
rclavicle 7.00716e-014 2.18663e-014
rhumerus -29.9039 9.91505 -75.3123
rradius 56.3243
rwrist 23.5441
rhand -1.49881 52.4311
rfingers 7.12502
rthumb 24.154 23.9318
lclavicle 7.00716e-014 2.18663e-014
lhumerus -65.3798 36.207 1.31706
lradius 129.708
lwrist 79.4285
lhand 37.2621 63.8528
lfingers 7.12502
lthumb 60.0894 77.5389
rfemur 1.54042 -10.6378 27.3062
rtibia 34.0924
rfoot -8.35727 5.68922
rtoes -40.0868
lfemur -41.2104 9.124 -27.4016
ltibia 48.1479
lfoot -30.722 13.9309
ltoes 26.6419
429
root 5.51825 15.5614 0.405874 -316.683 -79.5448 324.947
lowerback -2.7893 11.9761 4.86286
upperback -6.60637 15.9197 1.73335
thorax -4.60077 7.69333 -0.876631
lowerneck 5.94505 -13.9995 -15.441
upperneck 22.4332 -20.8974 4.42584
head 8.17797 -11.1862 2.40531
rclavicle -9.98893e-014 -2.46493e-014
rhumerus -29.7102 10.154 -74.8747
rradius 56.9004
rwrist 22.6871
rhand -1.4436 51.7444
rfingers 7.12502
rthumb 24.207 23.2522
lclavicle -9.98893e-014 -2.46493e-014
lhumerus -65.7865 36.3663 0.636705
lradius 128.038
lwrist 79.5439
lhand 39.1494 64.5095
lfingers 7.12502
lthumb 61.6864 76.3885
rfemur -1.67817 -12.6379 25.5796
rtibia 40.8226
rfoot -1.74826 6.73239
rtoes -38.2093
lfemur -39.3628 5.8547 -28.306
ltibia 48.1165
lfoot -30.5752 13.4543
ltoes 30.4763
430
root 5.1866 15.5208 0.471985 -329.938 -76.9694 338.031
lowerback -2.70229 11.9572 4.63895
upperback -6.59314 15.9026 1.37762
thorax -4.58863 7.69387 -1.13378
lowerneck 6.08008 -13.8561 -15.6572
upperneck 21.7314 -20.619 4.52918
head 7.92112 -11.0412 2.53311
rclavicle -4.14963e-014 -2.06736e-014
rhumerus -29.4391 10.8274 -74.521
rradius 57.631
rwrist 21.4956
rhand -1.12295 50.9624
rfingers 7.12502
rthumb 24.5144 22.5115
lclavicle -4.14963e-014 -2.06736e-014
lhumerus -65.912 36.6744 0.133318
lradius 126.3
lwrist 79.3506
lhand 40.548 65.6019
lfingers 7.12502
lthumb 62.8479 75.9985
rfemur -5.12541 -14.4736 24.0906
rtibia 48.1906
rfoot 3.70844 7.19931
rtoes -38.4738
lfemur -37.4198 2.75365 -29.1474
ltibia 48.2098
lfoot -31.0937 13.109
ltoes 31.6726
431
root 4.86668 15.4719 0.518471 -338.924 -73.7516 346.482
lowerback -2.10678 11.8375 4.44425
upperback -6.44669 15.7907 1.12082
thorax -4.73952 7.64397 -1.40765
lowerneck 6.21288 -13.5454 -15.8293
upperneck 20.8183 -20.0983 4.66047
head 7.56499 -10.7707 2.69827
rclavicle -1.4223e-013 -2.94201e-014
rhumerus -28.8459 11.8215 -74.2277
rradius 58.213
rwrist 20.487
rhand -1.43525 50.4101
rfingers 7.12502
rthumb 24.215 21.9189
lclavicle -1.4223e-013 -2.94201e-014
lhumerus -65.7126 37.0771 -0.168214
lradius 124.564
lwrist 78.692
lhand 40.7585 66.2907
lfingers 7.12502
lthumb 63.0209 76.4526
rfemur -8.27803 -16.2939 22.5711
rtibia 55.4331
rfoot 7.50681 9.65663
rtoes -39.2683
lfemur -35.1588 0.331574 -29.905
ltibia 48.5709
lfoot -31.9789 11.5836
ltoes 33.3303
432
root 4.56838 15.3813 0.536371 -346.741 -69.8377 354.483
lowerback -1.5158 11.5043 3.26115
upperback -6.6036 15.3784 0.600233
thorax -5.40151 7.46616 -1.51634
lowerneck 6.02327 -12.8978 -16.6205
upperneck 20.4133 -19.2401 5.40741
head 7.51975 -10.3477 3.12469
rclavicle -1.53511e-013 -5.00937e-014
rhumerus -28.1213 12.5554 -74.0309
rradius 58.4637
rwrist 19.9689
rhand -1.77127 50.5917
rfingers 7.12502
rthumb 23.8928 22.058
lclavicle -1.53511e-013 -5.00937e-014
lhumerus -65.1698 37.3842 -0.189346
lradius 122.806
lwrist 77.6755
lhand 39.7444 66.1648
lfingers 7.12502
lthumb 62.183 77.4289
rfemur -12.6954 -18.4295 20.7349
rtibia 62.4713
rfoot 7.30182 9.45023
rtoes -39.3407
lfemur -33.6278 -1.39553 -31.9299
ltibia 48.3979
lfoot -31.1407 10.6542
ltoes 29.6766
433
root 4.23139 15.3493 0.568925 -354.633 -66.7767 361.503
lowerback 0.139941 11.5385 1.46498
upperback -6.33007 15.4491 0.0582374
thorax -6.33863 7.55531 -1.53746
lowerneck 5.10182 -12.398 -15.4646
upperneck 20.3715 -18.1186 4.27179
head 7.3046 -9.76305 2.68118
rclavicle -2.11755e-013 -3.77691e-014
rhumerus -27.415 12.4409 -73.9815
rradius 58.4011
rwrist 20.0748
rhand -1.91753 50.9912
rfingers 7.12502
rthumb 23.7525 22.4392
lclavicle -2.11755e-013 -3.77691e-014
lhumerus -64.1612 37.6076 0.29211
lradius 121.016
lwrist 76.3539
lhand 37.5783 65.6949
lfingers 7.12502
lthumb 60.3592 79.0925
rfemur -15.1933 -18.9538 17.3425
rtibia 68.2729
rfoot 5.84279 9.09268
rtoes -38.0991
lfemur -29.8405 -3.19541 -33.7718
ltibia 48.5356
lfoot -33.2569 6.79026
ltoes 35.8192
434
root 3.91618 15.2667 0.595777 -359.361 -62.5417 366.45
lowerback 0.952406 11.3798 -0.038371
upperback -6.26707 15.1709 -0.622421
thorax -6.93013 7.46223 -1.65493
lowerneck 4.15513 -11.6047 -14.4403
upperneck 20.2256 -16.6447 3.33939
head 7.08243 -9.0069 2.34724
rclavicle -1.12313e-013 -2.10712e-014
rhumerus -26.3866 11.7913 -73.9119
rradius 58.0658
rwrist 20.485
rhand -2.58317 50.6631
rfingers 7.12502
rthumb 23.114 22.0296
lclavicle -1.12313e-013 -2.10712e-014
lhumerus -62.9355 37.9624 1.18663
lradius 119.122
lwrist 74.5665
lhand 35.9898 65.2295
lfingers 7.12502
lthumb 58.9961 80.0223
rfemur -18.9772 -19.4735 14.4832
rtibia 73.3693
rfoot 4.1808 9.01418
rtoes -38.5012
lfemur -28.024 -3.97539 -36.4756
ltibia 47.9678
lfoot -32.0352 6.54967
ltoes 27.9601
435
root 3.59606 15.2165 0.618312 -360.717 -58.3518 367.984
lowerback 1.31987 11.22 -0.520346
upperback -6.08055 14.9308 -0.838332
thorax -7.00225 7.36223 -1.67802
lowerneck 3.22901 -10.4539 -13.4417
upperneck 19.7922 -14.6992 2.4238
head 6.75716 -8.02036 2.06288
rclavicle 2.42517e-014 3.97569e-015
rhumerus -25.0266 11.6212 -73.6896
rradius 57.7143
rwrist 20.1368
rhand -2.25636 51.2958
rfingers 7.12502
rthumb 23.4275 22.7019
lclavicle 2.42517e-014 3.97569e-015
lhumerus -62.1454 38.4741 2.14518
lradius 117.314
lwrist 72.6062
lhand 34.9518 64.5953
lfingers 7.12502
lthumb 58.0952 80.231
rfemur -22.5274 -18.9483 12.953
rtibia 76.7184
rfoot 2.59799 8.4398
rtoes -36.6516
lfemur -26.2487 -5.0233 -37.2766
ltibia 48.0104
lfoot -31.9355 4.16133
ltoes 26.3831
